HIERARCHY
ROOT Hips
{
    OFFSET 0.0 0.0 0.0
    CHANNELS 6 Xposition Yposition Zposition Zrotation Xrotation Yrotation
    JOINT Spine
    {
        OFFSET 0.0 5.0 0.0
        CHANNELS 3 Zrotation Xrotation Yrotation
        JOINT Chest
        {
            OFFSET 0.0 5.0 0.0
            CHANNELS 3 Zrotation Xrotation Yrotation
            JOINT Neck
            {
                OFFSET 0.0 5.0 0.0
                CHANNELS 3 Zrotation Xrotation Yrotation
                JOINT Head
                {
                    OFFSET 0.0 3.0 0.0
                    CHANNELS 3 Zrotation Xrotation Yrotation
                    End Site
                    {
                        OFFSET 0.0 3.0 0.0
                    }
                }
            }
            JOINT LeftShoulder
            {
                OFFSET -3.0 4.0 0.0
                CHANNELS 3 Zrotation Xrotation Yrotation
                JOINT LeftUpperArm
                {
                    OFFSET -5.0 0.0 0.0
                    CHANNELS 3 Zrotation Xrotation Yrotation
                    JOINT LeftLowerArm
                    {
                        OFFSET -5.0 0.0 0.0
                        CHANNELS 3 Zrotation Xrotation Yrotation
                        JOINT LeftHand
                        {
                            OFFSET -3.0 0.0 0.0
                            CHANNELS 3 Zrotation Xrotation Yrotation
                            End Site
                            {
                                OFFSET -2.0 0.0 0.0
                            }
                        }
                    }
                }
            }
            JOINT RightShoulder
            {
                OFFSET 3.0 4.0 0.0
                CHANNELS 3 Zrotation Xrotation Yrotation
                JOINT RightUpperArm
                {
                    OFFSET 5.0 0.0 0.0
                    CHANNELS 3 Zrotation Xrotation Yrotation
                    JOINT RightLowerArm
                    {
                        OFFSET 5.0 0.0 0.0
                        CHANNELS 3 Zrotation Xrotation Yrotation
                        JOINT RightHand
                        {
                            OFFSET 3.0 0.0 0.0
                            CHANNELS 3 Zrotation Xrotation Yrotation
                            End Site
                            {
                                OFFSET 2.0 0.0 0.0
                            }
                        }
                    }
                }
            }
        }
    }
    JOINT LeftUpLeg
    {
        OFFSET -3.0 0.0 0.0
        CHANNELS 3 Zrotation Xrotation Yrotation
        JOINT LeftLeg
        {
            OFFSET 0.0 -8.0 0.0
            CHANNELS 3 Zrotation Xrotation Yrotation
            JOINT LeftFoot
            {
                OFFSET 0.0 -8.0 0.0
                CHANNELS 3 Zrotation Xrotation Yrotation
                End Site
                {
                    OFFSET 0.0 -2.0 2.0
                }
            }
        }
    }
    JOINT RightUpLeg
    {
        OFFSET 3.0 0.0 0.0
        CHANNELS 3 Zrotation Xrotation Yrotation
        JOINT RightLeg
        {
            OFFSET 0.0 -8.0 0.0
            CHANNELS 3 Zrotation Xrotation Yrotation
            JOINT RightFoot
            {
                OFFSET 0.0 -8.0 0.0
                CHANNELS 3 Zrotation Xrotation Yrotation
                End Site
                {
                    OFFSET 0.0 -2.0 2.0
                }
            }
        }
    }
}

MOTION
Frames: 18
Frame Time: 0.03333333333333333
34.693997 74.292603 0.004288 177.403012 2.293849 -41.448997 177.403012 2.293849 -41.448997 174.759164 9.118238 -60.252105 0.000000 0.000000 0.000000 0.000000 -153.828621 -179.094084 0.000000 0.000000 0.000000 72.438028 77.711400 55.461847 99.046308 124.464413 -166.940355 0.000000 0.000000 0.000000 0.000000 0.000000 0.000000 101.883503 65.597458 -24.883797 117.129520 131.623491 -150.031098 0.000000 0.000000 0.000000 100.582070 118.438573 -160.967461 84.638872 34.325831 3.666365 0.000000 0.000000 0.000000 97.321850 111.427100 -161.870860 81.669816 22.232975 3.425190 0.000000 0.000000 0.000000
35.425515 76.873145 0.010214 -167.594720 -57.255524 -81.948721 -167.594720 -57.255524 -81.948721 -168.006966 -74.754013 -86.686334 0.000000 0.000000 0.000000 0.000000 -153.144804 177.875405 0.000000 0.000000 0.000000 80.508059 62.686813 17.939743 91.177481 126.037068 -178.381742 0.000000 0.000000 0.000000 0.000000 0.000000 0.000000 104.715818 63.221954 -27.494030 106.366558 128.914367 -160.009763 0.000000 0.000000 0.000000 92.230176 99.896042 -167.416307 94.489361 38.123035 -3.525794 0.000000 0.000000 0.000000 94.943879 91.957075 -111.555450 89.552954 33.185107 0.292376 0.000000 0.000000 0.000000
36.562082 78.581315 0.012035 -162.675852 -110.554553 -96.671211 -162.675852 -110.554553 -96.671211 -162.378318 -105.416750 -95.005832 0.000000 0.000000 0.000000 0.000000 -153.506588 177.722525 0.000000 0.000000 0.000000 84.997880 62.148830 9.405579 91.233758 128.523862 -178.450418 0.000000 0.000000 0.000000 0.000000 0.000000 0.000000 105.281796 64.440865 -29.739988 98.150515 126.429997 -169.018401 0.000000 0.000000 0.000000 92.358197 102.351248 -169.348945 92.859861 37.603239 -2.203392 0.000000 0.000000 0.000000 93.576710 93.355634 -133.168972 91.303879 34.915433 -0.910202 0.000000 0.000000 0.000000
37.357101 78.710577 0.009048 -169.344016 -124.778610 -97.444545 -169.344016 -124.778610 -97.444545 -163.225860 -108.728047 -95.834878 0.000000 0.000000 0.000000 0.000000 -149.773876 178.298768 0.000000 0.000000 0.000000 84.557586 63.440407 10.790862 92.896947 123.791585 -175.675753 0.000000 0.000000 0.000000 0.000000 0.000000 0.000000 104.532914 69.812943 -35.186111 95.085237 120.940992 -171.556286 0.000000 0.000000 0.000000 93.111814 110.174483 -171.583428 90.909607 39.075328 -0.738589 0.000000 0.000000 0.000000 94.632058 94.962327 -136.980747 91.695038 39.920564 -1.418430 0.000000 0.000000 0.000000
37.539893 79.197058 0.014052 -176.097076 -114.414899 -91.773847 -176.097076 -114.414899 -91.773847 -165.744541 -121.424633 -98.823847 0.000000 0.000000 0.000000 0.000000 -152.943700 178.579861 0.000000 0.000000 0.000000 84.896822 60.892041 9.112306 90.129143 128.482579 -179.837544 0.000000 0.000000 0.000000 0.000000 0.000000 0.000000 104.004461 71.144039 -36.140666 92.067651 123.417834 -176.868127 0.000000 0.000000 0.000000 93.012803 104.352718 -168.376826 90.163041 37.827178 -0.126592 0.000000 0.000000 0.000000 92.298670 89.633693 -80.950356 91.988749 37.179726 -1.508691 0.000000 0.000000 0.000000
37.177342 78.845510 0.016243 179.904053 178.295776 -93.221378 179.904053 178.295776 -93.221378 -170.713309 -140.773889 -101.326798 0.000000 0.000000 0.000000 0.000000 -155.141128 177.568509 0.000000 0.000000 0.000000 85.602632 55.888192 6.477047 87.552579 123.688163 176.331391 0.000000 0.000000 0.000000 0.000000 0.000000 0.000000 104.848185 70.732403 -37.177180 94.030115 118.424803 -172.583560 0.000000 0.000000 0.000000 93.268688 104.352143 -167.417390 88.462901 38.658977 1.229749 0.000000 0.000000 0.000000 90.989601 90.714853 -125.841751 90.514641 38.382264 -0.407644 0.000000 0.000000 0.000000
36.697443 78.915101 0.019227 178.691608 174.436495 -103.196053 178.691608 174.436495 -103.196053 -176.649738 -170.338843 -108.976846 0.000000 0.000000 0.000000 0.000000 -154.693540 179.573508 0.000000 0.000000 0.000000 84.846038 54.350912 7.167780 88.449586 123.728880 177.678493 0.000000 0.000000 0.000000 0.000000 0.000000 0.000000 102.300340 72.362379 -34.441985 95.219307 124.404024 -172.402240 0.000000 0.000000 0.000000 90.908652 106.480186 -176.931221 87.846675 39.371090 1.767214 0.000000 0.000000 0.000000 92.845298 94.766298 -149.201921 88.085811 40.103457 1.612269 0.000000 0.000000 0.000000
35.968016 78.849143 0.019784 178.079113 173.884428 -107.381230 178.079113 173.884428 -107.381230 -177.670601 -166.949633 -99.953607 0.000000 0.000000 0.000000 0.000000 -156.457727 179.658471 0.000000 0.000000 0.000000 83.820472 56.833370 9.406718 89.175544 127.874802 178.940026 0.000000 0.000000 0.000000 0.000000 0.000000 0.000000 102.281195 76.798103 -42.861136 93.431522 125.128225 -175.128480 0.000000 0.000000 0.000000 89.867411 100.608385 179.292127 87.300345 38.019017 2.111252 0.000000 0.000000 0.000000 92.099106 97.647110 -164.731035 90.459779 40.273928 -0.389564 0.000000 0.000000 0.000000
35.439274 78.839642 0.018017 178.644995 174.992376 -105.106878 178.644995 174.992376 -105.106878 -175.172654 -155.432183 -100.466562 0.000000 0.000000 0.000000 0.000000 -158.073370 178.825507 0.000000 0.000000 0.000000 83.581138 60.658316 11.317298 90.190675 128.856589 -179.763328 0.000000 0.000000 0.000000 0.000000 0.000000 0.000000 102.249619 75.076413 -39.167149 93.031277 128.815906 -176.233908 0.000000 0.000000 0.000000 88.549240 106.249800 175.034011 87.321184 37.271356 2.039221 0.000000 0.000000 0.000000 91.215625 102.700340 -174.621047 90.054508 36.055185 -0.039682 0.000000 0.000000 0.000000
35.091679 78.738090 0.017453 179.572516 179.107535 -115.592704 179.572516 179.107535 -115.592704 -175.601933 -170.083433 -113.746327 0.000000 0.000000 0.000000 0.000000 -157.630435 178.357650 0.000000 0.000000 0.000000 82.756099 57.230087 11.169958 89.794333 133.953600 179.786680 0.000000 0.000000 0.000000 0.000000 0.000000 0.000000 103.001159 70.195316 -32.666198 93.291046 129.415460 -175.997731 0.000000 0.000000 0.000000 90.170536 101.335302 -179.149337 88.771030 34.500443 0.844730 0.000000 0.000000 0.000000 90.516163 101.540861 -177.473775 89.962507 33.229660 0.024562 0.000000 0.000000 0.000000
35.498254 78.648362 0.015901 -179.076703 -178.004763 -114.825435 -179.076703 -178.004763 -114.825435 -172.935153 -166.714443 -117.693492 0.000000 0.000000 0.000000 0.000000 -157.188831 177.681107 0.000000 0.000000 0.000000 80.778006 50.942115 11.314480 91.199206 125.581761 -178.324073 0.000000 0.000000 0.000000 0.000000 0.000000 0.000000 104.337938 69.570353 -34.458159 94.883440 126.909405 -173.510198 0.000000 0.000000 0.000000 91.305965 100.076180 -172.689321 89.493126 33.429576 0.334602 0.000000 0.000000 0.000000 90.734736 103.916783 -177.037274 90.857305 40.573923 -0.734137 0.000000 0.000000 0.000000
35.996422 78.593779 0.014018 -178.784638 -177.404260 -115.077900 -178.784638 -177.404260 -115.077900 -169.847499 -163.387119 -120.971950 0.000000 0.000000 0.000000 0.000000 -158.629521 177.363794 0.000000 0.000000 0.000000 82.783941 48.554973 8.159921 87.077898 127.741668 176.227106 0.000000 0.000000 0.000000 0.000000 0.000000 0.000000 104.710386 68.079712 -33.121164 94.715345 128.459547 -174.071212 0.000000 0.000000 0.000000 92.315384 97.911718 -163.777726 90.294813 29.298681 -0.165433 0.000000 0.000000 0.000000 91.170011 102.985995 -174.938968 91.921912 35.944204 -1.393741 0.000000 0.000000 0.000000
36.345875 78.601915 0.011978 -177.612028 -175.099231 -115.936321 -177.612028 -175.099231 -115.936321 -167.035685 -158.879694 -120.794099 0.000000 0.000000 0.000000 0.000000 -157.876608 177.458866 0.000000 0.000000 0.000000 84.356957 49.053580 6.496973 87.033251 126.780729 176.034277 0.000000 0.000000 0.000000 0.000000 0.000000 0.000000 105.165892 69.702110 -36.235431 92.682031 129.154048 -176.707336 0.000000 0.000000 0.000000 93.232024 101.626983 -164.653526 90.938795 29.533484 -0.531902 0.000000 0.000000 0.000000 91.845177 105.222677 -173.248309 91.696570 35.426119 -1.207028 0.000000 0.000000 0.000000
36.829288 78.593963 0.011400 -177.690320 -175.095771 -115.176378 -177.690320 -175.095771 -115.176378 -163.466896 -153.730289 -121.023312 0.000000 0.000000 0.000000 0.000000 -157.361347 177.723745 0.000000 0.000000 0.000000 85.816777 48.074796 4.656171 89.369606 131.614837 179.290348 0.000000 0.000000 0.000000 0.000000 0.000000 0.000000 104.158968 70.679064 -35.736797 94.307503 128.281269 -174.548294 0.000000 0.000000 0.000000 94.712184 103.392239 -160.903685 91.870631 30.648230 -1.108670 0.000000 0.000000 0.000000 91.776886 104.445690 -173.133180 91.756753 38.363876 -1.390745 0.000000 0.000000 0.000000
37.110902 78.359190 0.010489 -173.845624 -167.278787 -115.531521 -173.845624 -167.278787 -115.531521 -164.571923 -154.521204 -120.076904 0.000000 0.000000 0.000000 0.000000 -157.383786 177.315735 0.000000 0.000000 0.000000 86.567377 48.401544 3.865225 88.811299 131.806851 178.670877 0.000000 0.000000 0.000000 0.000000 0.000000 0.000000 104.208420 68.706605 -33.009107 96.020687 126.540993 -171.900033 0.000000 0.000000 0.000000 95.617841 105.719227 -160.735721 92.084939 37.794915 -1.617232 0.000000 0.000000 0.000000 90.782614 105.355767 -177.152318 92.574104 41.973063 -2.315841 0.000000 0.000000 0.000000
37.250245 78.531340 0.009367 -170.486293 -162.822104 -118.463511 -170.486293 -162.822104 -118.463511 -163.324308 -146.849831 -114.637777 0.000000 0.000000 0.000000 0.000000 -155.119713 178.000844 0.000000 0.000000 0.000000 86.265395 52.676669 4.893248 88.067065 126.127802 177.352865 0.000000 0.000000 0.000000 0.000000 0.000000 0.000000 106.748131 67.291968 -35.720432 97.523599 124.025449 -168.931759 0.000000 0.000000 0.000000 95.839183 109.431728 -163.833593 92.314036 35.592747 -1.656683 0.000000 0.000000 0.000000 88.570526 104.274012 174.398055 93.536562 40.864876 -3.060650 0.000000 0.000000 0.000000
37.601443 78.571361 0.009964 -169.022375 -161.515857 -120.125050 -169.022375 -161.515857 -120.125050 -163.123452 -138.779486 -109.100641 0.000000 0.000000 0.000000 0.000000 -153.667826 178.422026 0.000000 0.000000 0.000000 85.096590 58.161242 7.866000 86.627582 122.485306 174.712306 0.000000 0.000000 0.000000 0.000000 0.000000 0.000000 108.196757 67.491456 -38.423808 99.555106 122.477737 -165.186996 0.000000 0.000000 0.000000 96.762287 107.926308 -159.870065 92.347403 37.905681 -1.828180 0.000000 0.000000 0.000000 86.980657 103.830565 167.907142 92.060975 43.349111 -1.945594 0.000000 0.000000 0.000000
38.135643 78.949654 0.010572 -167.989579 -157.625119 -117.330151 -167.989579 -157.625119 -117.330151 -163.401569 -129.123395 -103.628267 0.000000 0.000000 0.000000 0.000000 -152.369802 178.280680 0.000000 0.000000 0.000000 81.685270 62.814888 15.883849 86.585549 129.203512 175.816481 0.000000 0.000000 0.000000 0.000000 0.000000 0.000000 108.916431 66.072957 -37.680891 102.248648 123.207387 -161.651123 0.000000 0.000000 0.000000 97.370807 105.553920 -155.073089 93.556982 39.950315 -2.980552 0.000000 0.000000 0.000000 85.493245 86.219296 50.024084 93.293601 32.818971 -2.125492 0.000000 0.000000 0.000000
